# xmcd
#
# Track frame offsets:
#	150
#	19973
#	36014
#	54680
#	72887
#	87482
#	106827
#	126580
#	145162
#	163511
#	181415
#
# Disc length: 2659 seconds
#
# Revision: 0
# Processed by: cddbd v1.5.2PL0 Copyright (c) Steve Scherf et al.
# Submitted via: EasyCDDAExtractor 10.0.1.1
#
DISCID=9a0a610b
DTITLE=Kiff Gallagher - Will And Surrender
DYEAR=2003
DGENRE=Soul
TTITLE0=Running Away
TTITLE1=Wide Open
TTITLE2=No Tomorrow
TTITLE3=Will And Surrender
TTITLE4=Summer Rain
TTITLE5=(Have You Ever Been) Tempted
TTITLE6=Follow The Leader
TTITLE7=In Your Room
TTITLE8=Down Low
TTITLE9=We Rise
TTITLE10=Only Love
EXTD=
EXTT0=
EXTT1=
EXTT2=
EXTT3=
EXTT4=
EXTT5=
EXTT6=
EXTT7=
EXTT8=
EXTT9=
EXTT10=
PLAYORDER=
